<?xml version="1.0" encoding="UTF-8"?>
<svg version="1.1" xmlns="http://www.w3.org/2000/svg" width="1024" height="1024">
<path d="M0 0 C337.92 0 675.84 0 1024 0 C1024 337.92 1024 675.84 1024 1024 C686.08 1024 348.16 1024 0 1024 C0 686.08 0 348.16 0 0 Z " fill="#FCFCFC" transform="translate(0,0)"/>
<path d="M0 0 C2.06297351 -0.00390078 4.12594432 -0.00954741 6.18890887 -0.0167709 C11.81295396 -0.03143145 17.43671636 -0.02140053 23.06075203 -0.00703418 C29.14327265 0.00412527 35.22575521 -0.0078833 41.30827332 -0.01687622 C52.51915193 -0.0299744 63.72993892 -0.02505397 74.94080721 -0.01080093 C85.29804836 0.00228114 95.65525731 0.00744097 106.01250648 0.00488091 C106.70109321 0.00472049 107.38967993 0.00456007 108.09913292 0.0043948 C110.89470991 0.00373115 113.69028689 0.00302873 116.48586386 0.00226946 C142.67573387 -0.00474452 168.86554724 0.01070373 195.05540283 0.03689292 C218.29955167 0.06001335 241.54363828 0.06539221 264.78779602 0.05516052 C270.74263602 0.05255829 276.69747602 0.04997322 282.65231609 0.0475626 C283.75214811 0.04711643 283.75214811 0.04711643 284.87419895 0.04666124 C304.32700954 0.03903955 323.77981507 0.04546445 343.2326234 0.05625862 C345.3266927 0.05740636 347.42076199 0.05854954 349.5148313 0.05968544 C350.90383659 0.06044069 352.29284187 0.06120633 353.68184714 0.06198245 C364.03208159 0.06763024 374.38229991 0.06631803 384.73253441 0.06175423 C396.50415785 0.05663729 408.27573016 0.06283796 420.04734214 0.08264852 C426.05009039 0.09250266 432.05274088 0.09764582 438.05549431 0.08975601 C443.55569653 0.08267474 449.0557019 0.08956101 454.55587826 0.10735964 C456.54012454 0.11138822 458.5243889 0.11043116 460.50862833 0.10384078 C488.8328148 0.01785387 511.17889505 8.77041615 531.66841125 28.62620544 C537.99180781 34.94407375 542.74860745 41.72156585 547.10591125 49.50120544 C547.96829407 51.02101013 547.96829407 51.02101013 548.84809875 52.57151794 C558.65205956 71.64290439 557.6913287 93.25049667 557.61415088 114.10813558 C557.60291251 118.34602953 557.61502541 122.58387152 557.62399292 126.82176208 C557.63783913 135.0952567 557.63043433 143.36859745 557.61531734 151.64208458 C557.59835788 161.29539917 557.60167978 170.94867649 557.60541142 180.60200139 C557.6112738 197.83300069 557.59718025 215.06392664 557.57246399 232.29490662 C557.54852933 248.98308559 557.5414691 265.67116668 557.55195618 282.35935974 C557.56338372 300.57651617 557.56527422 318.79362747 557.55085808 337.01078337 C557.54933238 338.9556212 557.54781203 340.90045903 557.54629707 342.84529686 C557.54553926 343.80196091 557.54478144 344.75862495 557.54400067 345.74427882 C557.53927349 352.460587 557.54109798 359.1768749 557.54536247 365.89318275 C557.55030563 374.08289489 557.54423102 382.27251477 557.52446818 390.46220586 C557.51464582 394.63427133 557.50943602 398.8061968 557.51736069 402.97826958 C557.52448389 406.80688737 557.51746026 410.6352243 557.49975706 414.4638054 C557.49387876 416.4838026 557.50246931 418.5038265 557.51180357 420.52381068 C557.35660076 443.20190999 549.74035745 463.20866596 535.10591125 480.50120544 C534.65989563 481.09288513 534.21388 481.68456482 533.75434875 482.29417419 C521.40517114 498.24203854 499.66377811 509.69950677 480.00203651 513.02640122 C475.80989251 513.53727999 471.75915656 513.64352068 467.54305363 513.63542652 C466.70233691 513.63777875 465.8616202 513.64013098 464.99542722 513.64255449 C462.1775109 513.64921292 459.35964103 513.64878722 456.54171753 513.64837646 C454.50117753 513.65167705 452.46063819 513.65540303 450.42009968 513.65951794 C444.81162335 513.66952382 439.20315773 513.67325246 433.59467375 513.67590725 C427.54603155 513.67981447 421.49739779 513.68939248 415.44876099 513.69812012 C401.53153473 513.71693869 387.61430931 513.7271386 373.69707401 513.7355808 C366.8156806 513.73979086 359.93428805 513.74501237 353.05289537 513.75026533 C329.48489156 513.76815377 305.91688749 513.78314845 282.34887791 513.79058552 C280.86992403 513.79106027 279.39097015 513.79153616 277.91201627 513.79201318 C276.81190476 513.79236774 276.81190476 513.79236774 275.68956877 513.79272947 C271.97393879 513.79393063 268.25830881 513.7951461 264.54267883 513.79637146 C263.80530921 513.79661161 263.06793958 513.79685176 262.30822542 513.79709919 C238.40992197 513.80498918 214.5116682 513.82841572 190.61338644 513.8609274 C165.33124937 513.89525874 140.04914135 513.91493972 114.76698059 513.91822976 C111.98920467 513.91864728 109.21142877 513.91912684 106.43365288 513.91965294 C105.74971451 513.91977613 105.06577614 513.91989932 104.36111237 513.92002625 C93.37493304 513.92235415 82.38881161 513.93799114 71.40265289 513.95849479 C60.35013168 513.9787943 49.29766475 513.98387832 38.24512447 513.97472415 C32.26241046 513.97018386 26.27988368 513.97205029 20.29719543 513.9914856 C14.81249417 514.00914881 9.32811629 514.0080937 3.84341144 513.9925883 C1.8668983 513.99021706 -0.10963743 513.99451044 -2.08611613 514.00641695 C-29.95355314 514.16379692 -53.80450982 505.25927317 -73.89408875 485.50120544 C-74.65463562 484.75354919 -75.4151825 484.00589294 -76.19877625 483.23558044 C-93.18268589 465.48768871 -100.39636492 442.71864855 -100.2817688 418.4548645 C-100.2859526 416.99058925 -100.29143581 415.52631724 -100.29808861 414.06205112 C-100.31242494 410.07887777 -100.30833592 406.09591341 -100.3009218 402.11272919 C-100.29616284 397.80107045 -100.30872397 393.48945516 -100.31893921 389.17781067 C-100.33607973 380.74644313 -100.33697706 372.31515027 -100.33172631 363.88376983 C-100.3276743 357.02592772 -100.32914037 350.16810757 -100.33447456 343.31026649 C-100.33522299 342.3318184 -100.33597141 341.35337031 -100.33674251 340.34527228 C-100.33827409 338.35713618 -100.33981244 336.36900009 -100.34135748 334.380864 C-100.35506549 315.7628467 -100.34965691 297.14487148 -100.33817226 278.52685515 C-100.32824292 261.52252355 -100.34117843 244.51830082 -100.36510646 227.51398601 C-100.38953384 210.02198745 -100.39909631 192.53003951 -100.39245373 175.03802425 C-100.38896943 165.23040241 -100.39114121 155.42286423 -100.40870476 145.61525536 C-100.42347237 137.2658779 -100.42400292 128.91664302 -100.40663385 120.56726822 C-100.39815864 116.31394093 -100.39588831 112.06086785 -100.4112854 107.80755424 C-100.54110705 69.2099821 -100.54110705 69.2099821 -92.20658875 52.68870544 C-91.86337585 51.98914734 -91.52016296 51.28958923 -91.16654968 50.5688324 C-80.22373877 29.00694775 -60.70814186 12.31865819 -37.89408875 4.50120544 C-25.19003355 0.65640158 -13.21017183 -0.06986154 0 0 Z " fill="#FBFCFC" transform="translate(283.8940887451172,248.49879455566406)"/>
<path d="M0 0 C2.06297351 -0.00390078 4.12594432 -0.00954741 6.18890887 -0.0167709 C11.81295396 -0.03143145 17.43671636 -0.02140053 23.06075203 -0.00703418 C29.14327265 0.00412527 35.22575521 -0.0078833 41.30827332 -0.01687622 C52.51915193 -0.0299744 63.72993892 -0.02505397 74.94080721 -0.01080093 C85.29804836 0.00228114 95.65525731 0.00744097 106.01250648 0.00488091 C106.70109321 0.00472049 107.38967993 0.00456007 108.09913292 0.0043948 C110.89470991 0.00373115 113.69028689 0.00302873 116.48586386 0.00226946 C142.67573387 -0.00474452 168.86554724 0.01070373 195.05540283 0.03689292 C218.29955167 0.06001335 241.54363828 0.06539221 264.78779602 0.05516052 C270.74263602 0.05255829 276.69747602 0.04997322 282.65231609 0.0475626 C283.75214811 0.04711643 283.75214811 0.04711643 284.87419895 0.04666124 C304.32700954 0.03903955 323.77981507 0.04546445 343.2326234 0.05625862 C345.3266927 0.05740636 347.42076199 0.05854954 349.5148313 0.05968544 C350.90383659 0.06044069 352.29284187 0.06120633 353.68184714 0.06198245 C364.03208159 0.06763024 374.38229991 0.06631803 384.73253441 0.06175423 C396.50415785 0.05663729 408.27573016 0.06283796 420.04734214 0.08264852 C426.05009039 0.09250266 432.05274088 0.09764582 438.05549431 0.08975601 C443.55569653 0.08267474 449.0557019 0.08956101 454.55587826 0.10735964 C456.54012454 0.11138822 458.5243889 0.11043116 460.50862833 0.10384078 C488.8328148 0.01785387 511.17889505 8.77041615 531.66841125 28.62620544 C537.99180781 34.94407375 542.74860745 41.72156585 547.10591125 49.50120544 C547.96829407 51.02101013 547.96829407 51.02101013 548.84809875 52.57151794 C558.65205956 71.64290439 557.6913287 93.25049667 557.61415088 114.10813558 C557.60291251 118.34602953 557.61502541 122.58387152 557.62399292 126.82176208 C557.63783913 135.0952567 557.63043433 143.36859745 557.61531734 151.64208458 C557.59835788 161.29539917 557.60167978 170.94867649 557.60541142 180.60200139 C557.6112738 197.83300069 557.59718025 215.06392664 557.57246399 232.29490662 C557.54852933 248.98308559 557.5414691 265.67116668 557.55195618 282.35935974 C557.56338372 300.57651617 557.56527422 318.79362747 557.55085808 337.01078337 C557.54933238 338.9556212 557.54781203 340.90045903 557.54629707 342.84529686 C557.54553926 343.80196091 557.54478144 344.75862495 557.54400067 345.74427882 C557.53927349 352.460587 557.54109798 359.1768749 557.54536247 365.89318275 C557.55030563 374.08289489 557.54423102 382.27251477 557.52446818 390.46220586 C557.51464582 394.63427133 557.50943602 398.8061968 557.51736069 402.97826958 C557.52448389 406.80688737 557.51746026 410.6352243 557.49975706 414.4638054 C557.49387876 416.4838026 557.50246931 418.5038265 557.51180357 420.52381068 C557.35660076 443.20190999 549.74035745 463.20866596 535.10591125 480.50120544 C534.65989563 481.09288513 534.21388 481.68456482 533.75434875 482.29417419 C521.40517114 498.24203854 499.66377811 509.69950677 480.00203651 513.02640122 C475.80989251 513.53727999 471.75915656 513.64352068 467.54305363 513.63542652 C466.70233691 513.63777875 465.8616202 513.64013098 464.99542722 513.64255449 C462.1775109 513.64921292 459.35964103 513.64878722 456.54171753 513.64837646 C454.50117753 513.65167705 452.46063819 513.65540303 450.42009968 513.65951794 C444.81162335 513.66952382 439.20315773 513.67325246 433.59467375 513.67590725 C427.54603155 513.67981447 421.49739779 513.68939248 415.44876099 513.69812012 C401.53153473 513.71693869 387.61430931 513.7271386 373.69707401 513.7355808 C366.8156806 513.73979086 359.93428805 513.74501237 353.05289537 513.75026533 C329.48489156 513.76815377 305.91688749 513.78314845 282.34887791 513.79058552 C280.86992403 513.79106027 279.39097015 513.79153616 277.91201627 513.79201318 C276.81190476 513.79236774 276.81190476 513.79236774 275.68956877 513.79272947 C271.97393879 513.79393063 268.25830881 513.7951461 264.54267883 513.79637146 C263.80530921 513.79661161 263.06793958 513.79685176 262.30822542 513.79709919 C238.40992197 513.80498918 214.5116682 513.82841572 190.61338644 513.8609274 C165.33124937 513.89525874 140.04914135 513.91493972 114.76698059 513.91822976 C111.98920467 513.91864728 109.21142877 513.91912684 106.43365288 513.91965294 C105.74971451 513.91977613 105.06577614 513.91989932 104.36111237 513.92002625 C93.37493304 513.92235415 82.38881161 513.93799114 71.40265289 513.95849479 C60.35013168 513.9787943 49.29766475 513.98387832 38.24512447 513.97472415 C32.26241046 513.97018386 26.27988368 513.97205029 20.29719543 513.9914856 C14.81249417 514.00914881 9.32811629 514.0080937 3.84341144 513.9925883 C1.8668983 513.99021706 -0.10963743 513.99451044 -2.08611613 514.00641695 C-29.95355314 514.16379692 -53.80450982 505.25927317 -73.89408875 485.50120544 C-74.65463562 484.75354919 -75.4151825 484.00589294 -76.19877625 483.23558044 C-93.18268589 465.48768871 -100.39636492 442.71864855 -100.2817688 418.4548645 C-100.2859526 416.99058925 -100.29143581 415.52631724 -100.29808861 414.06205112 C-100.31242494 410.07887777 -100.30833592 406.09591341 -100.3009218 402.11272919 C-100.29616284 397.80107045 -100.30872397 393.48945516 -100.31893921 389.17781067 C-100.33607973 380.74644313 -100.33697706 372.31515027 -100.33172631 363.88376983 C-100.3276743 357.02592772 -100.32914037 350.16810757 -100.33447456 343.31026649 C-100.33522299 342.3318184 -100.33597141 341.35337031 -100.33674251 340.34527228 C-100.33827409 338.35713618 -100.33981244 336.36900009 -100.34135748 334.380864 C-100.35506549 315.7628467 -100.34965691 297.14487148 -100.33817226 278.52685515 C-100.32824292 261.52252355 -100.34117843 244.51830082 -100.36510646 227.51398601 C-100.38953384 210.02198745 -100.39909631 192.53003951 -100.39245373 175.03802425 C-100.38896943 165.23040241 -100.39114121 155.42286423 -100.40870476 145.61525536 C-100.42347237 137.2658779 -100.42400292 128.91664302 -100.40663385 120.56726822 C-100.39815864 116.31394093 -100.39588831 112.06086785 -100.4112854 107.80755424 C-100.54110705 69.2099821 -100.54110705 69.2099821 -92.20658875 52.68870544 C-91.86337585 51.98914734 -91.52016296 51.28958923 -91.16654968 50.5688324 C-80.22373877 29.00694775 -60.70814186 12.31865819 -37.89408875 4.50120544 C-25.19003355 0.65640158 -13.21017183 -0.06986154 0 0 Z M-52.89408875 54.50120544 C-65.77319849 70.37600555 -65.56431267 87.49607269 -65.20658875 106.93870544 C-65.18145873 109.32735381 -65.15865393 111.71602783 -65.13822937 114.10472107 C-65.08364579 119.90411731 -65.0003974 125.70253861 -64.89408875 131.50120544 C-63.40053887 131.50210108 -63.40053887 131.50210108 -61.87681627 131.5030148 C-17.99645455 131.5295904 25.88390214 131.56110735 69.76423645 131.61784363 C70.42852811 131.61870114 71.09281978 131.61955865 71.77724149 131.62044214 C86.21396898 131.63910762 100.65069515 131.65866011 115.0874202 131.6791264 C122.16715136 131.68915761 129.2468828 131.6989928 136.32661438 131.70872498 C137.03113406 131.70969678 137.73565374 131.71066859 138.4615225 131.71166984 C161.2984563 131.74307897 184.13537827 131.76154358 206.97232994 131.77329791 C231.10479949 131.78578934 255.23721317 131.81302528 279.36964846 131.85581851 C293.82766331 131.88097947 308.28559055 131.89432082 322.74362761 131.89263502 C332.6524737 131.89260531 342.56123042 131.9071966 352.47004169 131.93336973 C358.19044134 131.94804518 363.91065768 131.95619329 369.631073 131.94700813 C374.86709606 131.93874285 380.10275023 131.94881671 385.33871847 131.97354206 C387.23386032 131.97924247 389.12903693 131.97818441 391.02416843 131.96971789 C393.59993136 131.95919575 396.17445003 131.97325587 398.7501297 131.99339676 C399.48636464 131.98449305 400.22259958 131.97558934 400.98114467 131.96641582 C406.36049736 132.04713958 410.63525435 133.46126551 415.10591125 136.50120544 C419.13713181 141.43945062 419.74860747 145.59143089 419.48872375 151.91526794 C418.70952948 157.17880476 416.15976519 159.70543819 412.04341125 162.81370544 C407.38759766 165.48832176 403.60910281 165.64702078 398.38098621 165.63987064 C397.58230068 165.64271286 396.78361514 165.64555508 395.96072701 165.64848343 C393.26186318 165.65686113 390.56304211 165.65810104 387.86416626 165.65942383 C385.91879508 165.66398709 383.97342488 165.66898676 382.02805585 165.6743874 C376.66469478 165.68800482 371.30134008 165.69539726 365.93796623 165.70181406 C360.16086127 165.70980221 354.38376961 165.72350541 348.60667419 165.73652649 C338.59160083 165.75831178 328.57652613 165.77644875 318.56144142 165.79213142 C304.08117903 165.81481138 289.60093135 165.84295679 275.12068143 165.8724507 C251.62935523 165.92023804 228.13802258 165.96341608 204.64668274 166.00389099 C181.82245922 166.04322701 158.99824104 166.08464617 136.17402649 166.12889099 C135.47072073 166.13025352 134.76741498 166.13161605 134.04279693 166.13301987 C126.98003435 166.14670502 119.91727185 166.16043258 112.85450941 166.17419121 C98.46632055 166.20221919 84.07813115 166.22996408 69.68994141 166.25753784 C68.69758129 166.25944014 68.69758129 166.25944014 67.68517349 166.26138087 C23.49209475 166.34606406 -20.70099617 166.42412702 -64.89408875 166.50120544 C-64.96281659 200.05636559 -65.01564884 233.61150817 -65.04728473 267.16672312 C-65.05103667 271.13189573 -65.05491965 275.0970682 -65.05888367 279.0622406 C-65.0596706 279.85160579 -65.06045753 280.64097098 -65.06126831 281.45425633 C-65.0743077 294.22079416 -65.09795343 306.98729129 -65.12554713 319.75380501 C-65.1536422 332.86200426 -65.17027366 345.97018226 -65.17635423 359.07841039 C-65.18046218 367.16115697 -65.19341761 375.24378851 -65.21783815 383.32649967 C-65.23563169 389.53353168 -65.23744403 395.74047672 -65.23341179 401.94753075 C-65.23423514 404.48711287 -65.2401761 407.02669948 -65.25170517 409.56625557 C-65.26671329 413.04357027 -65.26301175 416.52039963 -65.25485229 419.99772644 C-65.26359082 420.99387364 -65.27232934 421.99002084 -65.28133267 423.01635432 C-65.18369709 438.49566261 -59.85941457 451.03115854 -49.241745 462.21604919 C-38.28891495 472.87728975 -25.60033365 478.84075672 -10.23103809 478.75847435 C-8.97194919 478.76373346 -8.97194919 478.76373346 -7.68742415 478.76909882 C-4.88000971 478.77838878 -2.0728038 478.7734957 0.73461914 478.76863098 C2.76991167 478.77236845 4.80520277 478.77697036 6.84049159 478.78236163 C12.42971274 478.79459509 18.01887405 478.79433074 23.60810554 478.79197288 C29.63759081 478.7915648 35.66705688 478.80260302 41.6965332 478.81208801 C53.50827945 478.82870102 65.32001075 478.83422362 77.13176622 478.83531277 C86.7333936 478.83623233 96.33501451 478.84035148 105.93663979 478.84671402 C108.70182142 478.84850915 111.46700306 478.85028878 114.23218471 478.85206378 C114.91964624 478.85250587 115.60710777 478.85294797 116.31540146 478.85340346 C135.64967024 478.86571 154.98393678 478.87360478 174.31820965 478.8727169 C175.04698665 478.87268575 175.77576365 478.87265459 176.5266248 478.87262249 C180.22025002 478.87245628 183.91387524 478.87225819 187.60750046 478.87205307 C188.70782232 478.87199324 188.70782232 478.87199324 189.83037291 478.87193219 C191.31378565 478.87185132 192.79719838 478.87176772 194.28061111 478.87168141 C217.35545967 478.87045615 240.43024944 478.8854653 263.50508118 478.91282654 C289.43867509 478.94356503 315.37223037 478.96075796 341.30584365 478.95890009 C344.07259707 478.95875084 346.83935048 478.95865342 349.6061039 478.95859146 C350.28733173 478.95856815 350.96855957 478.95854484 351.67043067 478.95852083 C362.62087998 478.95845935 373.57127813 478.97121703 384.52171224 478.98845599 C395.53261939 479.00543129 406.54346122 479.00702911 417.55437579 478.99423735 C423.51646887 478.98770714 429.47837708 478.98759271 435.44045258 479.00494385 C440.90275844 479.02067685 446.36473285 479.01780826 451.82703064 479.00037558 C453.79874744 478.99730623 455.770489 479.00093558 457.74217661 479.01209573 C476.4985116 479.11119426 491.54267991 475.69402511 505.85591125 462.56370544 C517.58416829 450.29231639 521.41365763 435.89472588 521.37333679 419.34565735 C521.37707571 417.89282404 521.38167819 416.43999274 521.38706744 414.98716462 C521.39928336 411.00329932 521.39903863 407.01951808 521.39667869 403.03563833 C521.39627015 398.73552759 521.40731324 394.43544367 521.41679382 390.13534546 C521.43339786 381.71306655 521.43890313 373.29081564 521.44001858 364.86852174 C521.44096948 358.02001615 521.44508191 351.17151979 521.45141983 344.32301712 C521.46903182 324.89607557 521.47825895 305.4691561 521.47675888 286.04220651 C521.47667897 284.9951703 521.47659906 283.94813409 521.47651672 282.86936951 C521.47643496 281.82105104 521.4763532 280.77273257 521.47626896 279.69264688 C521.47545642 262.71103784 521.49458615 245.72951758 521.52279346 228.74793421 C521.5515438 211.30138205 521.56533252 193.85487315 521.5636059 176.4082967 C521.56294267 166.61745971 521.56840555 156.82671574 521.58996201 147.03590012 C521.60820225 138.69795702 521.61249793 130.36014911 521.59894316 122.02219467 C521.5924274 117.77143154 521.59224561 113.52092753 521.60964966 109.27018929 C521.62544782 105.37140605 521.6224487 101.47308594 521.60508139 97.57431354 C521.6020262 96.1712031 521.60558749 94.7680575 521.61680155 93.36498855 C521.74036531 76.79466224 516.9328992 62.50098312 505.54341125 50.25120544 C490.49285705 36.06851324 474.00819207 34.0461047 454.14804077 34.12025452 C452.12579437 34.11679416 450.10354986 34.11202707 448.08130926 34.10607278 C442.54669654 34.09358499 437.01223962 34.09972313 431.47762644 34.10903144 C425.50001717 34.11583071 419.52243432 34.10533631 413.54483032 34.09709167 C402.5189584 34.08453108 391.49313263 34.08560761 380.46725893 34.09382608 C370.27963459 34.10138215 360.09202835 34.10333848 349.90440178 34.09975815 C349.22780335 34.09952899 348.55120493 34.09929984 347.85410352 34.09906374 C345.10734123 34.09812967 342.36057895 34.09717447 339.61381668 34.09618445 C313.86252774 34.08701358 288.11127027 34.09531791 262.35998619 34.11147514 C239.4993174 34.12570965 216.63869875 34.12443872 193.7780304 34.11009216 C168.07440101 34.09401526 142.37079941 34.08766566 116.6671657 34.09692895 C113.9251893 34.09789106 111.1832129 34.09882958 108.4412365 34.09975815 C107.76612726 34.09999538 107.09101803 34.10023261 106.39545094 34.10047703 C96.21683334 34.10388424 86.03823587 34.09990831 75.85962105 34.09231949 C64.28108407 34.0837298 52.7026034 34.08619933 41.1240731 34.10216172 C35.21869301 34.11003519 29.31341456 34.11315171 23.40803528 34.10321426 C17.99774301 34.09424778 12.5876462 34.09923252 7.17737155 34.11514692 C5.22462015 34.11848645 3.27185209 34.11681939 1.31911147 34.10951956 C-20.43699671 34.03445529 -37.71349995 38.11056971 -52.89408875 54.50120544 Z " fill="#2568B7" transform="translate(283.8940887451172,248.49879455566406)"/>
<path d="M0 0 C1.81899811 -0.00956978 1.81899811 -0.00956978 3.67474365 -0.01933289 C5.64800629 -0.02100212 5.64800629 -0.02100212 7.66113281 -0.02270508 C9.03338658 -0.02592238 10.40564 -0.0292868 11.77789307 -0.03279114 C14.66297192 -0.03878522 17.54802083 -0.04063121 20.43310547 -0.04003906 C24.08721336 -0.03993847 27.74112237 -0.05348095 31.39518356 -0.07081127 C34.23694696 -0.08207768 37.07866489 -0.0839537 39.9204483 -0.08342934 C41.90911814 -0.08514928 43.89777378 -0.09591276 45.88641357 -0.10697937 C68.84414549 -0.05049562 89.54622236 4.61780218 106.73925781 20.58276367 C107.91488281 21.85120117 107.91488281 21.85120117 109.11425781 23.14526367 C109.64535156 23.67120117 110.17644531 24.19713867 110.72363281 24.73901367 C122.88262619 37.4360156 127.7610845 55.08328338 127.5168457 72.29272461 C126.8830513 89.9384226 119.17127533 104.52496191 106.61425781 116.70776367 C91.76228098 129.57947693 73.47253045 134.34346255 54.14941406 134.24291992 C53.11610458 134.24150497 52.0827951 134.24009003 51.01817322 134.2386322 C47.73767121 134.23306206 44.45723898 134.22051508 41.17675781 134.20776367 C38.94433693 134.20274481 36.71191497 134.19818258 34.47949219 134.1940918 C29.0243905 134.18310242 23.56932914 134.16639417 18.11425781 134.14526367 C18.12091965 135.0022435 18.12758148 135.85922333 18.13444519 136.74217224 C18.19474288 144.84793378 18.24032667 152.95361918 18.26969433 161.0595541 C18.28530049 165.22616134 18.30644554 169.39258209 18.34057617 173.55908203 C18.37335103 177.58561581 18.39114874 181.61197105 18.39888954 185.63862801 C18.40440072 187.16910675 18.41516216 188.69957655 18.43144798 190.22997856 C18.62254367 208.94449439 18.62254367 208.94449439 13.80363464 214.71458435 C8.19686527 219.82223749 2.16250056 220.61655195 -5.13183594 220.45776367 C-9.3225284 219.9822241 -12.54513412 218.72162885 -15.88574219 216.14526367 C-20.27571922 210.6296515 -21.03504042 206.32086159 -21.03964233 199.4733429 C-21.04402459 198.68421499 -21.04840684 197.89508708 -21.05292189 197.08204621 C-21.06631167 194.42904403 -21.07248917 191.77607507 -21.07861328 189.12304688 C-21.08651413 187.22427724 -21.09478307 185.3255091 -21.10339355 183.42674255 C-21.12961643 177.18319127 -21.14492181 170.93963327 -21.15917969 164.69604492 C-21.16453932 162.5469735 -21.16991683 160.39790213 -21.17531204 158.2488308 C-21.19694146 149.30922305 -21.21567813 140.36961711 -21.22693443 131.42998981 C-21.24317318 118.61748422 -21.27634864 105.80528191 -21.33333528 92.99289066 C-21.37203579 83.98471169 -21.39156729 74.97661384 -21.396855 65.96835393 C-21.40050838 60.58790393 -21.41252848 55.20777739 -21.44495773 49.82741737 C-21.47503996 44.76383697 -21.48134951 39.70077572 -21.46957397 34.63712502 C-21.46935325 32.78118454 -21.47765722 30.92521996 -21.49522781 29.06936264 C-21.64664209 12.15228104 -21.64664209 12.15228104 -17.31298256 6.47696209 C-12.27951517 1.78044377 -6.78155234 0.02422029 0 0 Z " fill="#2468B7" transform="translate(614.8857421875,465.854736328125)"/>
<path d="M0 0 C6.42774398 5.66202338 9.04718396 12.24268825 11.6796875 20.21875 C12.08964462 21.40872086 12.49960175 22.59869171 12.92198181 23.82472229 C13.80001075 26.38094772 14.67100442 28.93834231 15.53042603 31.50076294 C16.89120699 35.55724572 18.27865611 39.60428704 19.6706543 43.65014648 C21.32705435 48.46932221 22.97818271 53.29022475 24.62127209 58.1139555 C28.60034459 69.79341619 32.68838044 81.43351405 36.8125 93.0625 C37.15275208 94.02402985 37.49300415 94.98555969 37.84356689 95.97622681 C46.86246034 121.44946392 56.23589552 146.80258603 66 172 C66.66 172 67.32 172 68 172 C79.26135096 141.63096634 89.95993424 111.07943711 100.38046265 80.41241455 C105.05056643 66.67140723 109.77300243 52.94986551 114.5625 39.25 C114.84632538 38.43622894 115.13015076 37.62245789 115.4225769 36.7840271 C117.00805994 32.24082232 118.60804819 27.70320649 120.22784424 23.17211914 C120.75030697 21.70240103 121.26753987 20.23081503 121.77996826 18.75756836 C122.53815825 16.57880545 123.31231497 14.40629951 124.08984375 12.234375 C124.30935196 11.59163635 124.52886017 10.94889771 124.75502014 10.28668213 C126.6791675 4.99979794 129.38841082 0.48804835 134.37890625 -2.35546875 C137.6281757 -3.15446944 140.59103706 -3.30159947 143.9375 -3.3125 C145.71447266 -3.33763672 145.71447266 -3.33763672 147.52734375 -3.36328125 C152.12793196 -2.88200487 155.48382336 -1.66193686 158.64306641 1.80102539 C161.19200958 5.9317075 160.55201055 10.31702543 160 15 C158.87524769 19.58011092 157.31709731 23.95258301 155.6875 28.375 C155.22581918 29.6665526 154.76539985 30.95855673 154.30615234 32.25097656 C150.9582496 41.61368209 147.38511189 50.89062121 143.80688477 60.16723633 C137.67542915 76.17676975 132.14695615 92.40823532 126.49584961 108.59155273 C121.62940319 122.52438668 116.72512665 136.4405866 111.6875 150.3125 C111.29318283 151.39866608 111.29318283 151.39866608 110.89089966 152.5067749 C110.63436615 153.21336243 110.37783264 153.91994995 110.11352539 154.64794922 C109.6199354 156.00748007 109.12636378 157.36701759 108.6328125 158.7265625 C108.40152145 159.36347015 108.17023041 160.00037781 107.93193054 160.65658569 C105.93821663 166.15402076 103.98952511 171.66639432 102.0625 177.1875 C101.65765381 178.33629639 101.65765381 178.33629639 101.24462891 179.50830078 C99.94619897 183.20747784 98.70349423 186.91504502 97.53125 190.65625 C94.51985606 200.08941146 91.45874526 207.92550559 82.74609375 213.421875 C76.66354126 216.20138255 70.45377479 216.36430841 63.875 216.4375 C63.04000977 216.44789307 62.20501953 216.45828613 61.34472656 216.46899414 C54.67148182 216.37364328 48.27161401 215.37363604 42.765625 211.37890625 C34.58198569 201.57119419 31.28382244 188.43947806 27.01254272 176.57302856 C21.80892216 162.13758238 16.43394602 147.79084012 10.6875 133.5625 C10.39389587 132.83418976 10.10029175 132.10587952 9.79779053 131.35549927 C8.37762578 127.83302604 6.95507074 124.31152415 5.53125 120.79052734 C-2.59887905 100.67375035 -9.80505054 80.28934832 -16.84887695 59.77099609 C-20.63308473 48.75611581 -24.49864638 37.78344096 -28.57177734 26.87182617 C-34.79131646 10.1483118 -34.79131646 10.1483118 -31.8125 3.25 C-24.8433221 -5.40139325 -9.00038023 -5.54415915 0 0 Z " fill="#2468B7" transform="translate(315,469)"/>
<path d="M0 0 C4.81134852 2.96870441 7.22468125 6.49222872 8.9375 11.8125 C9.127335 14.48561028 9.21618628 17.05327828 9.20492554 19.72492981 C9.20945665 20.51576657 9.21398776 21.30660332 9.21865618 22.12140483 C9.23130447 24.76825201 9.22967954 27.41489354 9.22802734 30.06176758 C9.23401235 31.96083338 9.24081783 33.85989674 9.24838257 35.75895691 C9.26605313 40.91607131 9.27073841 46.07311934 9.27201414 51.23026109 C9.27343576 54.45307687 9.27770556 57.67587577 9.28300858 60.89868736 C9.30151269 72.14446458 9.30967875 83.39019439 9.30810547 94.63598633 C9.30690412 105.11460033 9.32800419 115.59300834 9.3595928 126.07157022 C9.3857554 135.0713068 9.39647276 144.0709761 9.39519465 153.07075042 C9.39468499 158.44439954 9.40037034 163.81786561 9.42155075 169.19147682 C9.44093264 174.24684134 9.44105782 179.3018482 9.42651749 184.35722542 C9.4244282 186.20992811 9.42913739 188.06265318 9.4412384 189.91531754 C9.45672046 192.45033623 9.44736387 194.98412622 9.43197632 197.51911926 C9.44226344 198.2472499 9.45255057 198.97538054 9.46314943 199.72557575 C9.39153233 205.08754764 7.97314425 209.36023037 4.9375 213.8125 C-1.76934368 219.15060008 -7.75693883 219.41497594 -16.0625 218.8125 C-20.62138957 217.7131933 -24.21989719 215.56879657 -27.0625 211.8125 C-29.45591516 206.31830201 -30.50049816 201.75369054 -30.44345093 195.7358551 C-30.4481309 194.9635784 -30.45281087 194.1913017 -30.45763266 193.39562267 C-30.46951887 190.82940597 -30.46015068 188.26372964 -30.45068359 185.69750977 C-30.45475217 183.84888398 -30.46009565 182.00026062 -30.46661377 180.15164185 C-30.48026008 175.14541165 -30.47499953 170.13936747 -30.46547651 165.13313413 C-30.45786488 159.88562101 -30.46492981 154.6381235 -30.46963501 149.39060974 C-30.47508866 140.57832998 -30.46791169 131.76612571 -30.45361328 122.95385742 C-30.43729261 112.77798901 -30.44257265 102.60230099 -30.4590925 92.42643696 C-30.47272453 83.67799641 -30.47461847 74.92961004 -30.46677649 66.1811623 C-30.46210877 60.96127075 -30.46145022 55.74146388 -30.47138596 50.52157784 C-30.48007814 45.61229803 -30.4739926 40.7032498 -30.45670319 35.7939949 C-30.45275014 33.99654588 -30.45385204 32.19907723 -30.46049118 30.40163612 C-30.52854306 10.09944799 -30.52854306 10.09944799 -24.6875 2.875 C-17.9485866 -2.41986053 -7.98138889 -3.04712461 0 0 Z " fill="#2467B7" transform="translate(539.0625,467.1875)"/>
<path d="M0 0 C5.671875 -0.0825 11.34375 -0.165 17.1875 -0.25 C18.94860107 -0.28641602 20.70970215 -0.32283203 22.52416992 -0.36035156 C37.26198504 -0.53766117 50.86344625 2.21720945 61.875 12.75 C68.16453852 22.36929421 69.33645533 31.44429936 67.5625 42.80078125 C65.26212041 52.04543172 59.46985389 58.48980348 51.69921875 63.7109375 C40.94167121 68.84840594 30.55585813 68.35152166 18.875 68.1875 C12.64625 68.125625 6.4175 68.06375 0 68 C0 45.56 0 23.12 0 0 Z " fill="#FAFBFB" transform="translate(633,499)"/>
<path d="M0 0 C1.30194975 3.90584926 0.116776 6.24620219 -1.23828125 9.94140625 C-1.47910934 10.62371811 -1.71993744 11.30602997 -1.96806335 12.00901794 C-2.74096158 14.19667488 -3.52557262 16.37985376 -4.3125 18.5625 C-8.73982308 30.60943235 -8.73982308 30.60943235 -11.65258789 43.08520508 C-12.09893961 45.54531508 -12.9450693 47.73943422 -14 50 C-14.66 50 -15.32 50 -16 50 C-16.19335938 50.77085937 -16.38671875 51.54171875 -16.5859375 52.3359375 C-16.84632813 53.33882812 -17.10671875 54.34171875 -17.375 55.375 C-17.63023437 56.37273438 -17.88546875 57.37046875 -18.1484375 58.3984375 C-19 61 -19 61 -21 63 C-19.52764553 55.63194587 -17.33633677 48.66552198 -14.90234375 41.5625 C-14.50801651 40.40121582 -14.11368927 39.23993164 -13.70741272 38.04345703 C-12.87841834 35.60550988 -12.04711574 33.16834651 -11.21362305 30.73193359 C-9.93272503 26.98603594 -8.66017085 23.2373784 -7.38867188 19.48828125 C-6.58121792 17.11702102 -5.7732921 14.74592139 -4.96484375 12.375 C-4.58255112 11.24908447 -4.20025848 10.12316895 -3.80638123 8.96313477 C-3.4525386 7.93115967 -3.09869598 6.89918457 -2.73413086 5.8359375 C-2.42261581 4.92376465 -2.11110077 4.0115918 -1.79014587 3.07177734 C-1 1 -1 1 0 0 Z " fill="#0F35A1" transform="translate(422,532)"/>
<path d="M0 0 C1.12377697 3.30435084 0.89554742 5.0506862 -0.4375 8.25 C-0.72496094 8.95640625 -1.01242187 9.6628125 -1.30859375 10.390625 C-1.53675781 10.92171875 -1.76492188 11.4528125 -2 12 C-2.66 12 -3.32 12 -4 12 C-4.19335938 12.77085937 -4.38671875 13.54171875 -4.5859375 14.3359375 C-4.84632813 15.33882812 -5.10671875 16.34171875 -5.375 17.375 C-5.63023437 18.37273438 -5.88546875 19.37046875 -6.1484375 20.3984375 C-7 23 -7 23 -9 25 C-7.87910964 19.19174995 -6.33149082 13.61750798 -4.5 8 C-4.17962769 6.9934436 -4.17962769 6.9934436 -3.8527832 5.96655273 C-3.29453609 4.29009174 -2.65334454 2.64173756 -2 1 C-1.34 0.67 -0.68 0.34 0 0 Z " fill="#1848A9" transform="translate(410,570)"/>
<path d="M0 0 C0.99 0.33 1.98 0.66 3 1 C2.2575 1.639375 1.515 2.27875 0.75 2.9375 C-2.2273588 5.87268658 -3.58589455 9.1642862 -5.10546875 13.01171875 C-6 15 -6 15 -8 17 C-6.83505361 10.10229112 -5.08186209 5.08186209 0 0 Z " fill="#2C76BC" transform="translate(448,469)"/>
<path d="M0 0 C1.9375 0.5625 1.9375 0.5625 4 2 C4.6875 5.25 4.6875 5.25 5 9 C5.3274322 11.00097458 5.65876419 13.00133314 6 15 C3.61874536 12.61874536 2.99813759 10.66142433 1.875 7.5 C1.52179688 6.5203125 1.16859375 5.540625 0.8046875 4.53125 C0 2 0 2 0 0 Z " fill="#123CA2" transform="translate(339,635)"/>
</svg>
